PathFileType	4	(X/Y/Z)	C:/Users/opensim2020/Desktop/walking_exp_matlab/subject03_walking11_straight_02.trc	
DataRate	CameraRate	NumFrames	NumMarkers	Units	OrigDataRate	OrigDataStartFrame	OrigNumFrames	
100.00	100.00	4	46	mm	100.00	2066	357	
Frame#	Time	LFHD			RFHD			LBHD			RBHD			C7			T10			CLAV			STRN			RBAK			LSHO			LUPA			LELB			LFRM			LWRA			LWRB			LFIN			RSHO			RUPA			RELB			RFRM			RWRA			RWRB			RFIN			LASI			RASI			LPSI			RPSI			LTHI			LKNE			LTIB			LANK			LHEE			LTOE			RTHI			RKNE			RTIB			RANK			RHEE			RTOE			*39			*40			*41			*42			*43			*44			*45			
		X1	Y1	Z1	X2	Y2	Z2	X3	Y3	Z3	X4	Y4	Z4	X5	Y5	Z5	X6	Y6	Z6	X7	Y7	Z7	X8	Y8	Z8	X9	Y9	Z9	X10	Y10	Z10	X11	Y11	Z11	X12	Y12	Z12	X13	Y13	Z13	X14	Y14	Z14	X15	Y15	Z15	X16	Y16	Z16	X17	Y17	Z17	X18	Y18	Z18	X19	Y19	Z19	X20	Y20	Z20	X21	Y21	Z21	X22	Y22	Z22	X23	Y23	Z23	X24	Y24	Z24	X25	Y25	Z25	X26	Y26	Z26	X27	Y27	Z27	X28	Y28	Z28	X29	Y29	Z29	X30	Y30	Z30	X31	Y31	Z31	X32	Y32	Z32	X33	Y33	Z33	X34	Y34	Z34	X35	Y35	Z35	X36	Y36	Z36	X37	Y37	Z37	X38	Y38	Z38	X39	Y39	Z39	X40	Y40	Z40	X41	Y41	Z41	X42	Y42	Z42	X43	Y43	Z43	X44	Y44	Z44	X45	Y45	Z45	X46	Y46	Z46	

268	2.670	-949.30023	-750.99847	1608.19226	-1082.51270	-755.89941	1608.27429	-957.90253	-621.69214	1568.52856	-1088.22253	-631.62695	1568.45325	-1016.45770	-588.41034	1407.83411	-1018.59448	-550.85986	1093.41003	-1006.00879	-708.95648	1329.55652	-1000.43964	-747.95435	1163.72095	-1120.52197	-541.62170	1234.02649	-853.75464	-649.65271	1365.18823	-790.54718	-616.06177	1166.12817	-783.48505	-610.67542	1042.08167	-786.66187	-629.65356	912.90009	-820.22449	-647.39014	796.14410	-772.67773	-617.48859	799.62384	-785.07776	-630.35461	716.25885	-1169.06812	-679.91602	1354.41931	-1241.46704	-717.46350	1136.86072	-1250.44714	-757.19244	1031.04297	-1240.18945	-811.36694	905.93060	-1192.26770	-860.92035	826.27881	-1239.66882	-840.54010	809.92999	-1220.49390	-882.63916	751.12170	-896.87543	-712.70233	928.22247	-1134.66345	-718.45123	929.30536	-947.42731	-551.45728	947.33051	-1096.85364	-557.25421	961.83606	-851.22668	-710.43811	626.59637	-892.88116	-772.75305	460.96222	-889.39667	-772.34552	269.70187	-920.43341	-819.87714	63.52884	-962.19965	-789.30695	25.69140	-934.46130	-973.24432	41.94546	-1173.57593	-625.95532	640.43793	-1139.62708	-603.03314	461.34909	-1142.90967	-507.30777	291.79767	-1095.21021	-419.75687	91.85979	-1045.86145	-367.98340	71.48880	-1071.93738	-551.24329	30.06756	-1006.09387	-673.83704	1670.46423																		 
269	2.680	-947.69092	-757.40485	1608.59778	-1080.92883	-762.21130	1608.85144	-956.92352	-627.80231	1568.36707	-1086.85352	-638.09979	1568.29578	-1014.40704	-595.22650	1407.71399	-1016.60437	-558.60175	1093.21619	-1004.72638	-716.08746	1329.76465	-999.62543	-755.38574	1164.02063	-1118.07312	-548.07831	1233.96387	-852.00049	-657.57635	1364.90552	-789.14862	-624.03540	1165.66382	-782.26727	-618.70013	1041.62939	-785.73254	-637.00641	912.23712	-819.64764	-654.13861	795.50562	-771.99316	-624.43237	799.04504	-784.59637	-636.83301	715.65845	-1167.79089	-686.13080	1354.63721	-1240.09399	-722.72833	1136.66687	-1249.28430	-761.94568	1030.60645	-1239.24280	-815.51312	905.18170	-1191.63013	-864.90155	825.27924	-1238.98975	-844.14215	808.97040	-1219.97168	-885.91766	749.93042	-896.26831	-720.82159	928.05457	-1134.12769	-725.32275	929.08093	-945.52557	-559.39752	947.65692	-1095.19250	-564.25867	961.77185	-851.02148	-717.51410	627.25507	-892.49823	-776.84589	460.50363	-889.35541	-775.73297	269.53195	-919.46521	-822.52563	63.53492	-961.24109	-790.64459	26.67957	-936.71606	-975.85553	38.18197	-1172.81128	-631.87866	640.37848	-1139.10962	-608.58832	461.30823	-1142.72461	-511.00119	292.72552	-1095.29919	-421.13745	93.65079	-1046.32300	-368.90799	74.08424	-1072.02686	-551.49591	30.06276	-1004.78766	-679.59418	1670.65417																		 
270	2.690	-946.06720	-763.66370	1609.48828	-1079.37634	-768.52185	1609.62280	-955.49249	-634.20654	1568.52502	-1085.34839	-644.67841	1568.45020	-1012.46655	-602.23071	1407.96167	-1014.77155	-566.24957	1093.30029	-1003.42871	-723.27087	1330.24573	-998.79541	-762.82672	1164.53442	-1115.79443	-554.56122	1234.05408	-850.22333	-665.53461	1364.84326	-787.56903	-632.43433	1165.38538	-780.93640	-626.76666	1041.18433	-785.00220	-644.67017	911.77362	-819.25269	-660.71082	794.97217	-771.19922	-631.59125	798.61646	-784.04138	-643.60358	715.26563	-1166.56104	-692.20557	1354.99072	-1238.74854	-727.88104	1136.67151	-1248.12866	-766.58368	1030.39270	-1238.30151	-819.40857	904.47632	-1191.08386	-868.52771	824.19708	-1238.20642	-847.29059	808.13330	-1219.56726	-888.87585	748.86755	-895.64624	-728.93506	928.28833	-1133.43945	-732.24316	928.95477	-943.88501	-567.25092	948.58624	-1093.68933	-571.46130	961.95135	-850.64349	-724.42957	628.18982	-892.05756	-781.13611	460.58090	-888.37085	-779.40118	269.67221	-919.65320	-825.68280	63.27938	-960.52997	-792.29639	27.64291	-936.39111	-978.92114	36.55360	-1171.99475	-638.06958	640.46240	-1138.55005	-614.51648	461.34952	-1142.54016	-514.96759	293.82629	-1095.62573	-422.52985	95.75890	-1046.69910	-369.98419	77.00569	-1072.25452	-551.54413	29.86895	-1003.57019	-685.23279	1671.16296																		 
271	2.700	-944.50092	-769.95795	1610.43188	-1077.79956	-774.93237	1610.59302	-954.04242	-640.64764	1568.82739	-1083.89026	-651.24664	1568.86035	-1010.27173	-609.23779	1408.48560	-1013.35303	-573.71387	1093.77136	-1002.08331	-730.58850	1330.96082	-997.86066	-770.35931	1165.23621	-1113.19702	-561.28699	1234.38086	-848.51379	-673.58411	1365.01355	-786.08160	-640.89453	1165.32520	-779.61511	-635.22827	1041.06128	-784.05121	-652.59338	911.55475	-818.68799	-667.80170	794.77551	-770.40759	-639.05261	798.42395	-783.37012	-650.69336	715.14301	-1165.16650	-698.43274	1355.54468	-1237.33093	-732.93805	1136.95520	-1246.85266	-771.21881	1030.35205	-1237.41846	-823.08545	904.00433	-1190.67944	-871.97729	823.37213	-1237.76831	-850.30078	807.52747	-1219.39148	-891.48029	747.92377	-894.98169	-736.96545	928.98224	-1132.56848	-739.33514	929.00476	-942.25970	-575.12268	949.74487	-1092.23914	-578.90430	962.33728	-850.26978	-730.97888	629.37073	-891.62158	-785.46631	460.85474	-887.64124	-783.23224	269.95309	-919.99384	-827.37250	63.18250	-960.39331	-793.33221	28.26565	-934.61261	-980.80853	35.07122	-1171.08435	-644.59680	640.59613	-1137.93945	-620.79510	461.50659	-1142.23096	-519.09137	295.08942	-1096.26038	-423.96194	98.29697	-1046.99109	-371.26450	80.22139	-1072.31421	-551.80664	29.85808	-1001.58673	-691.56085	1671.47021																		 
